<svg width="212" height="57" viewBox="0 0 212 57" fill="none" xmlns="http://www.w3.org/2000/svg">
<path fill-rule="evenodd" clip-rule="evenodd" d="M211.096 0.584094H138.467V55.8686H211.096L184.635 27.8553L211.096 0.584094Z" fill="#F55B00"/>
<path d="M16.0468 15.0237L13.3659 8.21711L10.6522 15.0237H16.0468ZM10.2054 0.310818H16.6307L26.8718 24.5482H19.7227L18.0069 20.2151H8.69215L6.97636 24.5482H0L10.2054 0.310818Z" fill="#122B33"/>
<path d="M31.4005 3.50763C34.1856 1.47815 37.3789 6.57818e-06 42.0884 6.57818e-06C48.4094 6.57818e-06 51.847 2.68213 51.847 6.63677V6.67253C51.847 9.5573 50.4737 11.0712 47.7571 12.2037C50.575 13.0292 52.4666 14.4745 52.4666 17.7407V17.7765C52.4666 21.7967 48.755 25.0302 41.7101 25.0302C37.0721 25.0302 33.7031 23.6205 31.0579 21.6596L34.2542 16.8109C36.5538 18.3934 39.0292 19.356 41.6773 19.356C44.1855 19.356 45.6957 18.5305 45.6957 17.0881V17.0523C45.6957 15.6785 44.4595 14.8858 41.8829 14.8858H36.9321V9.96856H41.9156C44.0812 9.96856 45.1804 9.07749 45.1804 7.76922V7.73643C45.1804 6.42816 43.9799 5.63842 41.7786 5.63842C39.2019 5.63842 36.5895 6.70531 34.564 8.14769L31.4005 3.50763Z" fill="#122B33"/>
<path d="M70.3284 19.2189C72.2884 19.2189 73.4233 18.3576 73.4233 16.951V16.8825C73.4233 15.5414 72.3897 14.7159 70.2599 14.7159H65.5861V19.2189H70.3284ZM59.0923 0.482782H78.0941V6.05265H65.5861V9.59305H71.085C76.8936 9.59305 80.0542 12.2036 80.0542 16.7424V16.8109C80.0542 21.454 76.9622 24.5474 70.6382 24.5474H59.0923V0.482782Z" fill="#122B33"/>
<path d="M88.7076 24.5477L93.3128 16.4328L84.0338 0.483097H91.6268L96.9886 10.1775L102.005 0.483097H109.464L96.1635 24.5477H88.7076Z" fill="#122B33"/>
<path d="M113.237 0.482489H119.901L119.871 9.557H121.072L128.355 0.482489H136.329L126.332 12.1378L136.812 24.5471H128.563L121.072 15.3325H119.871L119.901 24.5471H113.237V0.482489Z" fill="#122B33"/>
<path d="M156.771 15.2958L154.09 8.48921L151.373 15.2958H156.771ZM150.926 0.582913H157.351L167.595 24.8203H160.446L158.728 20.4872H149.416L147.697 24.8203H140.721L150.926 0.582913Z" fill="white"/>
<path d="M50.7088 31.8946H57.7536L63.4938 41.2135L69.231 31.8946H76.2758V55.9622H69.642V42.1403L63.4938 51.5605H63.3538L57.2383 42.1731V55.9622H50.7088V31.8946Z" fill="#122B33"/>
<path d="M102.247 43.9984V43.9299C102.247 40.4222 99.775 37.4302 96.0962 37.4302C92.4203 37.4302 89.9807 40.3865 89.9807 43.8583V43.9299C89.9807 47.4017 92.4888 50.4236 96.1647 50.4236C99.8078 50.4236 102.247 47.4703 102.247 43.9984ZM83.1771 43.9984V43.9299C83.1771 37.016 88.7415 31.4133 96.1647 31.4133C103.588 31.4133 109.087 36.9504 109.087 43.8583V43.9299C109.087 50.8378 103.519 56.4435 96.0962 56.4435C88.673 56.4435 83.1771 50.9064 83.1771 43.9984Z" fill="#122B33"/>
<path d="M125.813 43.8586C128.148 43.8586 129.629 42.5861 129.629 40.6937V40.6282C129.629 38.5659 128.148 37.499 125.777 37.499H122.62V43.8586H125.813ZM115.95 31.8934H126.296C132.343 31.8934 136.263 35.0225 136.263 40.3182V40.3868C136.263 46.0937 131.896 49.0858 125.95 49.0858H122.62V55.9639H115.95V31.8934Z" fill="#122B33"/>
<path d="M153.265 37.5434C151.031 37.5434 149.655 38.5418 149.655 40.464V40.4997C149.655 42.3236 150.995 43.3517 153.229 43.3517H157.629V37.5434H153.265ZM164.296 55.8653H157.629V48.5789H154.743L149.86 55.8653H142.13L147.939 47.4792C144.671 46.1739 142.955 43.4918 142.955 40.2583V40.2226C142.955 34.6557 147.147 31.8007 153.438 31.8007H164.296V55.8653Z" fill="white"/>
</svg>
