<svg width="212" height="57" viewBox="0 0 212 57" fill="none" xmlns="http://www.w3.org/2000/svg">
<rect width="158.322" height="42.3326" transform="matrix(1.33333 0 0 -1.33333 0.485352 56.4546)" fill="white"/>
<path fill-rule="evenodd" clip-rule="evenodd" d="M211.581 0.595264H138.952V55.8797H211.581L185.121 27.8665L211.581 0.595264Z" fill="#F55B00"/>
<path d="M16.5322 15.0349L13.8512 8.22828L11.1376 15.0349H16.5322ZM10.6907 0.32198H17.116L27.3571 24.5594H20.208L18.4922 20.2263H9.1775L7.46171 24.5594H0.485352L10.6907 0.32198Z" fill="#122B33"/>
<path d="M31.8858 3.51878C34.671 1.48931 37.8642 0.0111608 42.5737 0.0111608C48.8947 0.0111608 52.3323 2.69328 52.3323 6.64792V6.68368C52.3323 9.56845 50.959 11.0824 48.2424 12.2148C51.0603 13.0403 52.9519 14.4857 52.9519 17.7519V17.7877C52.9519 21.8079 49.2403 25.0413 42.1954 25.0413C37.5574 25.0413 34.1884 23.6317 31.5432 21.6708L34.7395 16.8221C37.0391 18.4045 39.5145 19.3671 42.1626 19.3671C44.6708 19.3671 46.181 18.5416 46.181 17.0992V17.0635C46.181 15.6896 44.9448 14.8969 42.3682 14.8969H37.4174V9.97971H42.4009C44.5665 9.97971 45.6657 9.08865 45.6657 7.78037V7.74759C45.6657 6.43931 44.4653 5.64957 42.2639 5.64957C39.6873 5.64957 37.0748 6.71646 35.0493 8.15885L31.8858 3.51878Z" fill="#122B33"/>
<path d="M70.8137 19.23C72.7737 19.23 73.9087 18.3688 73.9087 16.9622V16.8936C73.9087 15.5526 72.875 14.7271 70.7452 14.7271H66.0714V19.23H70.8137ZM59.5776 0.493936H78.5794V6.06381H66.0714V9.60421H71.5703C77.379 9.60421 80.5395 12.2148 80.5395 16.7535V16.8221C80.5395 21.4651 77.4475 24.5585 71.1235 24.5585H59.5776V0.493936Z" fill="#122B33"/>
<path d="M89.1928 24.5588L93.798 16.4439L84.519 0.494259H92.112L97.4739 10.1886L102.49 0.494259H109.949L96.6487 24.5588H89.1928Z" fill="#122B33"/>
<path d="M113.723 0.493651H120.386L120.356 9.56816H121.557L128.84 0.493651H136.814L126.817 12.149L137.297 24.5582H129.049L121.557 15.3437H120.356L120.386 24.5582H113.723V0.493651Z" fill="#122B33"/>
<path d="M157.256 15.307L154.575 8.50036L151.858 15.307H157.256ZM151.411 0.594067H157.837L168.081 24.8315H160.932L159.213 20.4984H149.901L148.182 24.8315H141.206L151.411 0.594067Z" fill="white"/>
<path d="M51.1941 31.9058H58.239L63.9791 41.2246L69.7163 31.9058H76.7611V55.9733H70.1273V42.1515L63.9791 51.5717H63.8391L57.7236 42.1842V55.9733H51.1941V31.9058Z" fill="#122B33"/>
<path d="M102.733 44.0096V43.941C102.733 40.4334 100.26 37.4413 96.5814 37.4413C92.9056 37.4413 90.4659 40.3976 90.4659 43.8695V43.941C90.4659 47.4129 92.9741 50.4347 96.6499 50.4347C100.293 50.4347 102.733 47.4814 102.733 44.0096ZM83.6624 44.0096V43.941C83.6624 37.0271 89.2268 31.4245 96.6499 31.4245C104.073 31.4245 109.572 36.9615 109.572 43.8695V43.941C109.572 50.849 104.005 56.4546 96.5814 56.4546C89.1582 56.4546 83.6624 50.9175 83.6624 44.0096Z" fill="#122B33"/>
<path d="M126.298 43.8698C128.634 43.8698 130.114 42.5973 130.114 40.7049V40.6393C130.114 38.5771 128.634 37.5102 126.263 37.5102H123.105V43.8698H126.298ZM116.436 31.9046H126.781C132.828 31.9046 136.748 35.0337 136.748 40.3294V40.3979C136.748 46.1049 132.381 49.0969 126.435 49.0969H123.105V55.9751H116.436V31.9046Z" fill="#122B33"/>
<path d="M153.75 37.5546C151.516 37.5546 150.14 38.5529 150.14 40.4751V40.5109C150.14 42.3347 151.481 43.3629 153.715 43.3629H158.114V37.5546H153.75ZM164.781 55.8764H158.114V48.59H155.228L150.346 55.8764H142.616L148.424 47.4904C145.157 46.1851 143.441 43.5029 143.441 40.2695V40.2337C143.441 34.6668 147.632 31.8119 153.923 31.8119H164.781V55.8764Z" fill="white"/>
</svg>
